<svg width="11" height="11" viewBox="0 0 11 11" fill="none" xmlns="http://www.w3.org/2000/svg">
<path d="M10.2738 1.51758C10.2738 1.21097 10.0253 0.962407 9.71867 0.962407H4.72213C4.41552 0.962407 4.16696 1.21097 4.16696 1.51758C4.16696 1.82419 4.41552 2.07275 4.72213 2.07275H9.1635V6.51411C9.1635 6.82073 9.41206 7.06928 9.71867 7.06928C10.0253 7.06928 10.2738 6.82073 10.2738 6.51411V1.51758ZM0.443373 10.0077C0.226565 10.2246 0.226565 10.5761 0.443373 10.7929C0.66018 11.0097 1.01169 11.0097 1.2285 10.7929L0.443373 10.0077ZM9.3261 1.12501L0.443373 10.0077L1.2285 10.7929L10.1112 1.91014L9.3261 1.12501Z" fill="white"/>
</svg>
